<mxfile host="Electron" modified="2024-09-11T14:20:54.234Z" agent="Mozilla/5.0 (Windows NT 10.0; Win64; x64) AppleWebKit/537.36 (KHTML, like Gecko) draw.io/21.3.7 Chrome/112.0.5615.204 Electron/24.5.0 Safari/537.36" etag="OaQ_FtxmVBZ5eDzHi8YD" version="21.3.7" type="device">
  <diagram name="Seite-1" id="0pWEvKbX2b3xynGgOori">
    <mxGraphModel dx="3033" dy="1518" grid="1" gridSize="10" guides="1" tooltips="1" connect="1" arrows="1" fold="1" page="1" pageScale="1" pageWidth="827" pageHeight="1169" math="0" shadow="0">
      <root>
        <mxCell id="0" />
        <mxCell id="1" parent="0" />
        <mxCell id="zWXK_x8UR-4JUcqAASiZ-1" value="Source 1&lt;br style=&quot;font-size: 16px;&quot;&gt;25 °C" style="rounded=0;whiteSpace=wrap;html=1;fillColor=#f8cecc;strokeColor=#b85450;fontSize=16;" parent="1" vertex="1">
          <mxGeometry x="120" y="320" width="120" height="160" as="geometry" />
        </mxCell>
        <mxCell id="zWXK_x8UR-4JUcqAASiZ-2" value="Source 2&lt;br style=&quot;font-size: 16px;&quot;&gt;15 °C" style="rounded=0;whiteSpace=wrap;html=1;fillColor=#FFEDED;strokeColor=#d79b00;fontSize=16;" parent="1" vertex="1">
          <mxGeometry x="120" y="480" width="120" height="240" as="geometry" />
        </mxCell>
        <mxCell id="zWXK_x8UR-4JUcqAASiZ-3" value="Sink 1&lt;br style=&quot;font-size: 16px;&quot;&gt;70 °C" style="rounded=0;whiteSpace=wrap;html=1;fillColor=#F86363;strokeColor=#b85450;fontSize=16;fontColor=#FFFFFF;" parent="1" vertex="1">
          <mxGeometry x="440" y="240" width="120" height="280" as="geometry" />
        </mxCell>
        <mxCell id="zWXK_x8UR-4JUcqAASiZ-4" value="Sink 2&lt;br style=&quot;font-size: 16px;&quot;&gt;45 °C" style="rounded=0;whiteSpace=wrap;html=1;fillColor=#F8A6A6;strokeColor=#b85450;fontSize=16;fontColor=#FFFFFF;" parent="1" vertex="1">
          <mxGeometry x="440" y="520" width="120" height="200" as="geometry" />
        </mxCell>
        <mxCell id="zWXK_x8UR-4JUcqAASiZ-7" value="Source 1&lt;br style=&quot;font-size: 16px;&quot;&gt;25 °C" style="rounded=0;whiteSpace=wrap;html=1;fillColor=#f8cecc;strokeColor=#b85450;fontSize=16;" parent="1" vertex="1">
          <mxGeometry x="720" y="320" width="120" height="160" as="geometry" />
        </mxCell>
        <mxCell id="zWXK_x8UR-4JUcqAASiZ-8" value="Source 2&lt;br style=&quot;font-size: 16px;&quot;&gt;15 °C" style="rounded=0;whiteSpace=wrap;html=1;fillColor=#FFEDED;strokeColor=#d79b00;fontSize=16;" parent="1" vertex="1">
          <mxGeometry x="720" y="480" width="120" height="240" as="geometry" />
        </mxCell>
        <mxCell id="zWXK_x8UR-4JUcqAASiZ-9" value="Sink 1&lt;br style=&quot;font-size: 16px;&quot;&gt;70 °C" style="rounded=0;whiteSpace=wrap;html=1;fillColor=#F86363;strokeColor=#b85450;fontSize=16;fontColor=#FFFFFF;" parent="1" vertex="1">
          <mxGeometry x="1040" y="240" width="120" height="280" as="geometry" />
        </mxCell>
        <mxCell id="zWXK_x8UR-4JUcqAASiZ-10" value="Sink 2&lt;br style=&quot;font-size: 16px;&quot;&gt;45 °C" style="rounded=0;whiteSpace=wrap;html=1;fillColor=#F8A6A6;strokeColor=#b85450;fontSize=16;fontColor=#FFFFFF;" parent="1" vertex="1">
          <mxGeometry x="1040" y="520" width="120" height="200" as="geometry" />
        </mxCell>
        <mxCell id="zWXK_x8UR-4JUcqAASiZ-11" value="" style="endArrow=none;html=1;rounded=0;exitX=1;exitY=1;exitDx=0;exitDy=0;entryX=0;entryY=0.857;entryDx=0;entryDy=0;entryPerimeter=0;" parent="1" source="zWXK_x8UR-4JUcqAASiZ-7" target="zWXK_x8UR-4JUcqAASiZ-9" edge="1">
          <mxGeometry width="50" height="50" relative="1" as="geometry">
            <mxPoint x="920" y="360" as="sourcePoint" />
            <mxPoint x="970" y="310" as="targetPoint" />
          </mxGeometry>
        </mxCell>
        <mxCell id="zWXK_x8UR-4JUcqAASiZ-12" value="" style="endArrow=none;html=1;rounded=0;exitX=1;exitY=0;exitDx=0;exitDy=0;" parent="1" source="zWXK_x8UR-4JUcqAASiZ-7" edge="1">
          <mxGeometry width="50" height="50" relative="1" as="geometry">
            <mxPoint x="850" y="490" as="sourcePoint" />
            <mxPoint x="1040" y="320" as="targetPoint" />
          </mxGeometry>
        </mxCell>
        <mxCell id="zWXK_x8UR-4JUcqAASiZ-13" value="" style="rounded=0;whiteSpace=wrap;html=1;fillColor=#fff2cc;strokeColor=#d6b656;" parent="1" vertex="1">
          <mxGeometry x="720" y="160" width="120" height="160" as="geometry" />
        </mxCell>
        <mxCell id="zWXK_x8UR-4JUcqAASiZ-14" value="" style="endArrow=none;html=1;rounded=0;exitX=1;exitY=0.5;exitDx=0;exitDy=0;entryX=0;entryY=0;entryDx=0;entryDy=0;" parent="1" source="zWXK_x8UR-4JUcqAASiZ-61" target="zWXK_x8UR-4JUcqAASiZ-9" edge="1">
          <mxGeometry width="50" height="50" relative="1" as="geometry">
            <mxPoint x="850" y="330" as="sourcePoint" />
            <mxPoint x="1050" y="330" as="targetPoint" />
          </mxGeometry>
        </mxCell>
        <mxCell id="zWXK_x8UR-4JUcqAASiZ-16" value="Source 2&lt;br style=&quot;font-size: 16px;&quot;&gt;15 °C" style="rounded=0;whiteSpace=wrap;html=1;fillColor=#FFEDED;strokeColor=#d79b00;fontSize=16;" parent="1" vertex="1">
          <mxGeometry x="120" y="1040" width="120" height="240" as="geometry" />
        </mxCell>
        <mxCell id="zWXK_x8UR-4JUcqAASiZ-17" value="Sink 1&lt;br style=&quot;font-size: 16px;&quot;&gt;70 °C" style="rounded=0;whiteSpace=wrap;html=1;fillColor=#F86363;strokeColor=#b85450;fontSize=16;fontColor=#FFFFFF;" parent="1" vertex="1">
          <mxGeometry x="440" y="1040" width="120" height="40" as="geometry" />
        </mxCell>
        <mxCell id="zWXK_x8UR-4JUcqAASiZ-18" value="Sink 2&lt;br style=&quot;font-size: 16px;&quot;&gt;45 °C" style="rounded=0;whiteSpace=wrap;html=1;fillColor=#F8A6A6;strokeColor=#b85450;fontSize=16;fontColor=#FFFFFF;" parent="1" vertex="1">
          <mxGeometry x="440" y="1080" width="120" height="200" as="geometry" />
        </mxCell>
        <mxCell id="zWXK_x8UR-4JUcqAASiZ-23" value="" style="rounded=0;whiteSpace=wrap;html=1;fillColor=#fff2cc;strokeColor=#d6b656;" parent="1" vertex="1">
          <mxGeometry x="120" y="960" width="120" height="80" as="geometry" />
        </mxCell>
        <mxCell id="zWXK_x8UR-4JUcqAASiZ-24" value="Source 2&lt;br style=&quot;font-size: 16px;&quot;&gt;15 °C" style="rounded=0;whiteSpace=wrap;html=1;fillColor=#FFEDED;strokeColor=#d79b00;fontSize=16;" parent="1" vertex="1">
          <mxGeometry x="720" y="1040" width="120" height="240" as="geometry" />
        </mxCell>
        <mxCell id="zWXK_x8UR-4JUcqAASiZ-25" value="Sink 1&lt;br style=&quot;font-size: 16px;&quot;&gt;70 °C" style="rounded=0;whiteSpace=wrap;html=1;fillColor=#F86363;strokeColor=#b85450;fontSize=16;fontColor=#FFFFFF;" parent="1" vertex="1">
          <mxGeometry x="1040" y="1040" width="120" height="40" as="geometry" />
        </mxCell>
        <mxCell id="zWXK_x8UR-4JUcqAASiZ-26" value="Sink 2&lt;br style=&quot;font-size: 16px;&quot;&gt;45 °C" style="rounded=0;whiteSpace=wrap;html=1;fillColor=#F8A6A6;strokeColor=#b85450;fontSize=16;fontColor=#FFFFFF;" parent="1" vertex="1">
          <mxGeometry x="1040" y="1080" width="120" height="200" as="geometry" />
        </mxCell>
        <mxCell id="zWXK_x8UR-4JUcqAASiZ-27" value="" style="rounded=0;whiteSpace=wrap;html=1;fillColor=#fff2cc;strokeColor=#d6b656;" parent="1" vertex="1">
          <mxGeometry x="720" y="960" width="120" height="80" as="geometry" />
        </mxCell>
        <mxCell id="zWXK_x8UR-4JUcqAASiZ-28" value="" style="endArrow=none;html=1;rounded=0;entryX=0;entryY=0.5;entryDx=0;entryDy=0;exitX=1;exitY=0;exitDx=0;exitDy=0;" parent="1" source="zWXK_x8UR-4JUcqAASiZ-24" target="zWXK_x8UR-4JUcqAASiZ-25" edge="1">
          <mxGeometry width="50" height="50" relative="1" as="geometry">
            <mxPoint x="840" y="1054" as="sourcePoint" />
            <mxPoint x="1060" y="1010" as="targetPoint" />
          </mxGeometry>
        </mxCell>
        <mxCell id="zWXK_x8UR-4JUcqAASiZ-29" value="" style="endArrow=none;html=1;rounded=0;exitX=0.992;exitY=0.074;exitDx=0;exitDy=0;entryX=0;entryY=1;entryDx=0;entryDy=0;exitPerimeter=0;" parent="1" source="zWXK_x8UR-4JUcqAASiZ-24" target="zWXK_x8UR-4JUcqAASiZ-25" edge="1">
          <mxGeometry width="50" height="50" relative="1" as="geometry">
            <mxPoint x="849" y="1064" as="sourcePoint" />
            <mxPoint x="1050" y="1064" as="targetPoint" />
          </mxGeometry>
        </mxCell>
        <mxCell id="zWXK_x8UR-4JUcqAASiZ-30" value="" style="endArrow=none;html=1;rounded=0;exitX=0.999;exitY=0.864;exitDx=0;exitDy=0;entryX=-0.002;entryY=0.355;entryDx=0;entryDy=0;entryPerimeter=0;exitPerimeter=0;" parent="1" source="zWXK_x8UR-4JUcqAASiZ-62" edge="1">
          <mxGeometry width="50" height="50" relative="1" as="geometry">
            <mxPoint x="840" y="1040" as="sourcePoint" />
            <mxPoint x="1041" y="1040" as="targetPoint" />
          </mxGeometry>
        </mxCell>
        <mxCell id="zWXK_x8UR-4JUcqAASiZ-32" value="&lt;font style=&quot;font-size: 16px;&quot;&gt;COP = 3.5&lt;/font&gt;" style="text;html=1;strokeColor=none;fillColor=none;align=center;verticalAlign=middle;whiteSpace=wrap;rounded=0;" parent="1" vertex="1">
          <mxGeometry x="870" y="365" width="140" height="30" as="geometry" />
        </mxCell>
        <mxCell id="zWXK_x8UR-4JUcqAASiZ-33" value="&lt;font style=&quot;font-size: 16px;&quot;&gt;COP = 2.0&lt;/font&gt;" style="text;html=1;strokeColor=none;fillColor=none;align=center;verticalAlign=middle;whiteSpace=wrap;rounded=0;" parent="1" vertex="1">
          <mxGeometry x="870" y="1090" width="140" height="30" as="geometry" />
        </mxCell>
        <mxCell id="zWXK_x8UR-4JUcqAASiZ-34" value="Source 2&lt;br style=&quot;font-size: 16px;&quot;&gt;15 °C" style="rounded=0;whiteSpace=wrap;html=1;fillColor=#FFEDED;strokeColor=#d79b00;fontSize=16;" parent="1" vertex="1">
          <mxGeometry x="120" y="1600" width="120" height="220" as="geometry" />
        </mxCell>
        <mxCell id="zWXK_x8UR-4JUcqAASiZ-36" value="Sink 2&lt;br style=&quot;font-size: 16px;&quot;&gt;45 °C" style="rounded=0;whiteSpace=wrap;html=1;fillColor=#F8A6A6;strokeColor=#b85450;fontSize=16;fontColor=#FFFFFF;" parent="1" vertex="1">
          <mxGeometry x="440" y="1620" width="120" height="200" as="geometry" />
        </mxCell>
        <mxCell id="zWXK_x8UR-4JUcqAASiZ-37" value="" style="rounded=0;whiteSpace=wrap;html=1;fillColor=#fff2cc;strokeColor=#d6b656;" parent="1" vertex="1">
          <mxGeometry x="120" y="1540" width="120" height="60" as="geometry" />
        </mxCell>
        <mxCell id="zWXK_x8UR-4JUcqAASiZ-42" value="Source 2&lt;br style=&quot;font-size: 16px;&quot;&gt;15 °C" style="rounded=0;whiteSpace=wrap;html=1;fillColor=#FFEDED;strokeColor=#d79b00;fontSize=16;" parent="1" vertex="1">
          <mxGeometry x="720" y="1600" width="120" height="220" as="geometry" />
        </mxCell>
        <mxCell id="zWXK_x8UR-4JUcqAASiZ-43" value="Sink 2&lt;br style=&quot;font-size: 16px;&quot;&gt;45 °C" style="rounded=0;whiteSpace=wrap;html=1;fillColor=#F8A6A6;strokeColor=#b85450;fontSize=16;fontColor=#FFFFFF;" parent="1" vertex="1">
          <mxGeometry x="1040" y="1620" width="120" height="200" as="geometry" />
        </mxCell>
        <mxCell id="zWXK_x8UR-4JUcqAASiZ-44" value="" style="rounded=0;whiteSpace=wrap;html=1;fillColor=#fff2cc;strokeColor=#d6b656;" parent="1" vertex="1">
          <mxGeometry x="720" y="1540" width="120" height="60" as="geometry" />
        </mxCell>
        <mxCell id="zWXK_x8UR-4JUcqAASiZ-45" value="" style="endArrow=none;html=1;rounded=0;exitX=0.998;exitY=0.679;exitDx=0;exitDy=0;entryX=0;entryY=0;entryDx=0;entryDy=0;exitPerimeter=0;" parent="1" source="zWXK_x8UR-4JUcqAASiZ-64" target="zWXK_x8UR-4JUcqAASiZ-43" edge="1">
          <mxGeometry width="50" height="50" relative="1" as="geometry">
            <mxPoint x="840" y="1490" as="sourcePoint" />
            <mxPoint x="1040" y="1503" as="targetPoint" />
          </mxGeometry>
        </mxCell>
        <mxCell id="zWXK_x8UR-4JUcqAASiZ-46" value="" style="endArrow=none;html=1;rounded=0;exitX=0.999;exitY=0.647;exitDx=0;exitDy=0;entryX=0;entryY=0.25;entryDx=0;entryDy=0;exitPerimeter=0;" parent="1" target="zWXK_x8UR-4JUcqAASiZ-43" edge="1">
          <mxGeometry width="50" height="50" relative="1" as="geometry">
            <mxPoint x="840" y="1600" as="sourcePoint" />
            <mxPoint x="1040" y="1652" as="targetPoint" />
          </mxGeometry>
        </mxCell>
        <mxCell id="zWXK_x8UR-4JUcqAASiZ-47" value="" style="endArrow=none;html=1;rounded=0;exitX=0.999;exitY=0.647;exitDx=0;exitDy=0;exitPerimeter=0;entryX=0;entryY=1;entryDx=0;entryDy=0;" parent="1" target="zWXK_x8UR-4JUcqAASiZ-43" edge="1">
          <mxGeometry width="50" height="50" relative="1" as="geometry">
            <mxPoint x="840" y="1751" as="sourcePoint" />
            <mxPoint x="1040" y="1800" as="targetPoint" />
          </mxGeometry>
        </mxCell>
        <mxCell id="zWXK_x8UR-4JUcqAASiZ-48" value="&lt;font style=&quot;font-size: 16px;&quot;&gt;COP = 4.0&lt;/font&gt;" style="text;html=1;strokeColor=none;fillColor=none;align=center;verticalAlign=middle;whiteSpace=wrap;rounded=0;" parent="1" vertex="1">
          <mxGeometry x="870" y="1680" width="140" height="30" as="geometry" />
        </mxCell>
        <mxCell id="zWXK_x8UR-4JUcqAASiZ-49" value="Source 2&lt;br style=&quot;font-size: 16px;&quot;&gt;15 °C" style="rounded=0;whiteSpace=wrap;html=1;fillColor=#FFEDED;strokeColor=#d79b00;fontSize=16;" parent="1" vertex="1">
          <mxGeometry x="120" y="2140" width="120" height="70" as="geometry" />
        </mxCell>
        <mxCell id="zWXK_x8UR-4JUcqAASiZ-51" value="" style="rounded=0;whiteSpace=wrap;html=1;fillColor=#fff2cc;strokeColor=#d6b656;" parent="1" vertex="1">
          <mxGeometry x="120" y="2130" width="120" height="10" as="geometry" />
        </mxCell>
        <mxCell id="zWXK_x8UR-4JUcqAASiZ-56" value="" style="endArrow=none;html=1;rounded=0;strokeWidth=5;strokeColor=#999999;" parent="1" edge="1">
          <mxGeometry width="50" height="50" relative="1" as="geometry">
            <mxPoint x="640" y="2230" as="sourcePoint" />
            <mxPoint x="640" y="120" as="targetPoint" />
          </mxGeometry>
        </mxCell>
        <mxCell id="zWXK_x8UR-4JUcqAASiZ-57" value="" style="endArrow=none;html=1;rounded=0;strokeWidth=5;strokeColor=#999999;" parent="1" edge="1">
          <mxGeometry width="50" height="50" relative="1" as="geometry">
            <mxPoint x="1160" y="800" as="sourcePoint" />
            <mxPoint y="800" as="targetPoint" />
          </mxGeometry>
        </mxCell>
        <mxCell id="zWXK_x8UR-4JUcqAASiZ-61" value="&lt;font style=&quot;font-size: 16px;&quot;&gt;Electricity&lt;/font&gt;" style="rounded=0;whiteSpace=wrap;html=1;fillColor=none;strokeColor=#d6b656;dashed=1;strokeWidth=2;" parent="1" vertex="1">
          <mxGeometry x="720" y="160" width="120" height="160" as="geometry" />
        </mxCell>
        <mxCell id="zWXK_x8UR-4JUcqAASiZ-62" value="&lt;font style=&quot;font-size: 16px;&quot;&gt;Electricity&lt;/font&gt;" style="rounded=0;whiteSpace=wrap;html=1;fillColor=none;strokeColor=#d6b656;dashed=1;strokeWidth=2;" parent="1" vertex="1">
          <mxGeometry x="720" y="880" width="120" height="160" as="geometry" />
        </mxCell>
        <mxCell id="zWXK_x8UR-4JUcqAASiZ-64" value="&lt;font style=&quot;font-size: 16px;&quot;&gt;Electricity&lt;/font&gt;" style="rounded=0;whiteSpace=wrap;html=1;fillColor=none;strokeColor=#d6b656;dashed=1;strokeWidth=2;" parent="1" vertex="1">
          <mxGeometry x="720" y="1440" width="120" height="160" as="geometry" />
        </mxCell>
        <mxCell id="zWXK_x8UR-4JUcqAASiZ-65" value="&lt;font style=&quot;font-size: 16px;&quot;&gt;Electricity&lt;/font&gt;" style="rounded=0;whiteSpace=wrap;html=1;fillColor=none;strokeColor=#d6b656;dashed=1;strokeWidth=2;" parent="1" vertex="1">
          <mxGeometry x="120" y="880" width="120" height="160" as="geometry" />
        </mxCell>
        <mxCell id="zWXK_x8UR-4JUcqAASiZ-66" value="&lt;font style=&quot;font-size: 16px;&quot;&gt;Electricity&lt;/font&gt;" style="rounded=0;whiteSpace=wrap;html=1;fillColor=none;strokeColor=#d6b656;dashed=1;strokeWidth=2;" parent="1" vertex="1">
          <mxGeometry x="120" y="1980" width="120" height="160" as="geometry" />
        </mxCell>
        <mxCell id="zWXK_x8UR-4JUcqAASiZ-67" value="&lt;font style=&quot;font-size: 16px;&quot;&gt;Electricity&lt;/font&gt;" style="rounded=0;whiteSpace=wrap;html=1;fillColor=none;strokeColor=#d6b656;dashed=1;strokeWidth=2;" parent="1" vertex="1">
          <mxGeometry x="120" y="1440" width="120" height="160" as="geometry" />
        </mxCell>
        <mxCell id="zWXK_x8UR-4JUcqAASiZ-68" value="" style="endArrow=none;html=1;rounded=0;strokeWidth=5;strokeColor=#999999;" parent="1" edge="1">
          <mxGeometry width="50" height="50" relative="1" as="geometry">
            <mxPoint x="1160" y="1360" as="sourcePoint" />
            <mxPoint y="1360" as="targetPoint" />
          </mxGeometry>
        </mxCell>
        <mxCell id="zWXK_x8UR-4JUcqAASiZ-69" value="" style="endArrow=none;html=1;rounded=0;strokeWidth=5;strokeColor=#999999;" parent="1" edge="1">
          <mxGeometry width="50" height="50" relative="1" as="geometry">
            <mxPoint x="1160" y="1900" as="sourcePoint" />
            <mxPoint y="1900" as="targetPoint" />
          </mxGeometry>
        </mxCell>
        <mxCell id="zWXK_x8UR-4JUcqAASiZ-70" value="&lt;font color=&quot;#999999&quot; style=&quot;font-size: 50px;&quot;&gt;1&lt;/font&gt;" style="text;html=1;strokeColor=none;fillColor=none;align=center;verticalAlign=middle;whiteSpace=wrap;rounded=0;" parent="1" vertex="1">
          <mxGeometry y="120" width="90" height="70" as="geometry" />
        </mxCell>
        <mxCell id="AufqEVWv65nKWEY9hSs3-1" value="" style="rounded=0;whiteSpace=wrap;html=1;fillColor=#fff2cc;strokeColor=#d6b656;" vertex="1" parent="1">
          <mxGeometry x="120" y="160" width="120" height="160" as="geometry" />
        </mxCell>
        <mxCell id="zWXK_x8UR-4JUcqAASiZ-71" value="&lt;font color=&quot;#999999&quot; style=&quot;font-size: 50px;&quot;&gt;2&lt;/font&gt;" style="text;html=1;strokeColor=none;fillColor=none;align=center;verticalAlign=middle;whiteSpace=wrap;rounded=0;" parent="1" vertex="1">
          <mxGeometry y="840" width="90" height="70" as="geometry" />
        </mxCell>
        <mxCell id="zWXK_x8UR-4JUcqAASiZ-72" value="&lt;font color=&quot;#999999&quot; style=&quot;font-size: 50px;&quot;&gt;3&lt;/font&gt;" style="text;html=1;strokeColor=none;fillColor=none;align=center;verticalAlign=middle;whiteSpace=wrap;rounded=0;" parent="1" vertex="1">
          <mxGeometry y="1400" width="90" height="70" as="geometry" />
        </mxCell>
        <mxCell id="zWXK_x8UR-4JUcqAASiZ-73" value="&lt;font color=&quot;#999999&quot; style=&quot;font-size: 50px;&quot;&gt;4&lt;/font&gt;" style="text;html=1;strokeColor=none;fillColor=none;align=center;verticalAlign=middle;whiteSpace=wrap;rounded=0;" parent="1" vertex="1">
          <mxGeometry y="1940" width="90" height="70" as="geometry" />
        </mxCell>
        <mxCell id="zWXK_x8UR-4JUcqAASiZ-60" value="&lt;font style=&quot;font-size: 16px;&quot;&gt;Electricity&lt;/font&gt;" style="rounded=0;whiteSpace=wrap;html=1;fillColor=none;strokeColor=#d6b656;dashed=1;strokeWidth=2;" parent="1" vertex="1">
          <mxGeometry x="120" y="160" width="120" height="160" as="geometry" />
        </mxCell>
      </root>
    </mxGraphModel>
  </diagram>
</mxfile>
